<svg xmlns="http://www.w3.org/2000/svg" viewBox="0 0 320.18367 232.86085">
  <g id="Layer_2">
    <g id="Layer_1-2">
      <path d="M203.75325,232.86085q-48.75525,0-82.59284-33.83759T87.32282,116.43043q0-48.75523,33.83759-82.59284T203.75325,0q48.75522,0,82.59283,33.83759t33.83759,82.59284q0,48.75524-33.83759,82.59283T203.75325,232.86085ZM87.32282,229.2224a114.91186,114.91186,0,0,1-62.9452-41.47834Q0,156.45339,0,116.43043T24.37762,45.11679A114.912,114.912,0,0,1,87.32282,3.63845v30.563A84.544,84.544,0,0,0,45.11679,65.856a85.32093,85.32093,0,0,0-16.00918,50.57447,85.32092,85.32092,0,0,0,16.00918,50.57446,84.54393,84.54393,0,0,0,42.206,31.65453Zm116.43043-25.46915q36.38451,0,61.85366-25.46916t25.46916-61.85366q0-36.38452-25.46916-61.85367T203.75325,29.10761q-36.38452,0-61.85367,25.46915t-25.46915,61.85367q0,36.38449,25.46915,61.85366T203.75325,203.75325Z" fill="#363f48"/>
    </g>
  </g>
</svg>
